<?xml version="1.0" standalone="no"?><!DOCTYPE svg PUBLIC "-//W3C//DTD SVG 1.1//EN" "http://www.w3.org/Graphics/SVG/1.1/DTD/svg11.dtd"><svg t="1736067539787" class="icon" viewBox="0 0 1024 1024" version="1.1" xmlns="http://www.w3.org/2000/svg" p-id="1669" xmlns:xlink="http://www.w3.org/1999/xlink" width="200" height="200"><path d="M511.489534 511.488511m-511.488511 0a511.488511 511.488511 0 1 0 1022.977023 0 511.488511 511.488511 0 1 0-1022.977023 0Z" fill="#9CC5F2" p-id="1670"></path><path d="M687.441582 705.342657c-81.838162 72.631369-173.394605 62.913087-175.952048 62.401599-2.045954 0.511489-93.602398 10.22977-175.952047-62.401599-104.855145-93.090909-132.987013-232.215784-66.493507-317.634365C335.025998 302.801199 507.397626 311.496503 511.489534 312.007992c4.603397-0.511489 176.463536-9.206793 242.445555 75.188811 66.493506 85.93007 38.361638 225.054945-66.493507 318.145854z" fill="#B0D1F5" p-id="1671"></path><path d="M280.296727 723.756244v72.631368c0 25.062937 79.792208 75.188811 230.681319 75.188812s227.612388-46.033966 227.612388-69.562438v-82.861139l-56.263737 33.758242-125.826174 39.896104-87.464535 3.068931-169.814186-56.263736-18.925075-15.856144z" fill="#E1EEFB" p-id="1672"></path><path d="M202.038985 470.057942s79.792208 23.528472 218.917083-32.735265 156.515485-159.584416 156.515484-159.584415l-186.181818-23.528472L263.929095 328.375624 202.038985 470.057942z" fill="#6481A4" p-id="1673"></path><path d="M855.721303 266.485514h20.45954v141.682318h-20.45954z" fill="#CEE2F8" p-id="1674"></path><path d="M865.951073 258.813187m-21.994006 0a21.994006 21.994006 0 1 0 43.988012 0 21.994006 21.994006 0 1 0-43.988012 0Z" fill="#FFFFFF" p-id="1675"></path><path d="M194.366657 579.516484H141.683341c-9.206793 0-16.879121-7.672328-16.879121-16.879121v-138.101898c0-9.206793 7.672328-16.879121 16.879121-16.879121h52.171828c9.206793 0 16.879121 7.672328 16.879121 16.879121v138.101898c0 9.718282-7.160839 16.879121-16.367633 16.879121zM881.295728 579.516484h-52.171828c-9.206793 0-16.879121-7.672328-16.879121-16.879121v-138.101898c0-9.206793 7.672328-16.879121 16.879121-16.879121h52.171828c9.206793 0 16.879121 7.672328 16.879121 16.879121v138.101898c0 9.718282-7.672328 16.879121-16.879121 16.879121z" fill="#E1EEFB" p-id="1676"></path><path d="M511.489534 186.181818c-184.647353 0-334.001998 141.170829-334.001998 315.076923s149.354645 315.076923 334.001998 315.076923 334.001998-141.170829 334.001998-315.076923-149.354645-315.076923-334.001998-315.076923z m175.952048 519.160839c-81.838162 72.631369-173.394605 62.913087-175.952048 62.401599-2.045954 0.511489-93.602398 10.22977-175.952047-62.401599-104.855145-93.090909-132.987013-232.215784-66.493507-317.634365C335.025998 302.801199 507.397626 311.496503 511.489534 312.007992c4.603397-0.511489 176.463536-9.206793 242.445555 75.188811 66.493506 85.93007 38.361638 225.054945-66.493507 318.145854z" fill="#FFFFFF" p-id="1677"></path><path d="M509.955069 679.768232c-77.234765 0-98.205794-49.614386-99.228771-51.66034-3.068931-7.160839 0.511489-15.344655 7.672327-18.413586 7.160839-3.068931 15.344655 0.511489 18.413587 7.672327 0.511489 1.534466 15.856144 34.26973 72.631368 34.269731 62.913087 0 75.188811-31.712288 75.7003-33.246754 2.557443-7.160839 10.741259-11.252747 17.902098-8.695304 7.160839 2.557443 11.252747 10.22977 9.206793 17.390609 0 2.045954-17.390609 52.683317-102.297702 52.683317z" fill="#84A3C6" p-id="1678"></path></svg>