<?xml version="1.0" standalone="no"?><!DOCTYPE svg PUBLIC "-//W3C//DTD SVG 1.1//EN" "http://www.w3.org/Graphics/SVG/1.1/DTD/svg11.dtd"><svg t="1735805554585" class="icon" viewBox="0 0 1024 1024" version="1.1" xmlns="http://www.w3.org/2000/svg" p-id="1322" xmlns:xlink="http://www.w3.org/1999/xlink" width="200" height="200"><path d="M512 512m-512 0a512 512 0 1 0 1024 0 512 512 0 1 0-1024 0Z" fill="#D7E8FE" p-id="1323"></path><path d="M370.57536 464.3328c106.09152 64.97792 137.50784 70.0672 144.57856 70.0672s38.59456-4.94592 144.2304-68.4544q52.51584-31.78496 103.33696-65.9456V376.8832c-0.03584-24.3712-21.89824-44.0832-48.83968-44.0832h-398.848c-26.94144 0.07168-48.72704 19.712-48.80384 44.032v19.64032Q317.4912 431.616 370.57536 464.3328z m392.11008 136.5504V445.8752c-20.90496 13.65504-49.87392 32.29184-80.64 50.78528-16.96768 10.24-32.21504 19.03104-45.97248 26.7008q64.78848 36.5824 126.61248 77.52192z m-166.912-56.2688c-47.00672 23.15264-68.14208 26.73664-80.59904 26.73664-17.27488 0-41.58464-8.02816-76.43648-25.19552l-2.97984-1.4336c-66.19136 35.51744-145.26464 88.91904-169.37984 105.44128 1.83296 23.08096 23.04 40.96 48.6912 41.0368h398.848c26.9056-0.07168 48.72704-19.712 48.80384-44.032v-0.4096c-23.77216-16.05632-101.376-67.45088-166.912-102.10816v-0.03584zM266.24 442.68544v161.35168c31.5648-21.10976 81.71008-53.65248 129.59744-80.64q-24.48896-13.88544-48.41984-28.60032Q306.2784 469.504 266.24 442.68544z" fill="#388BFA" p-id="1324"></path></svg>