<?xml version="1.0" standalone="no"?><!DOCTYPE svg PUBLIC "-//W3C//DTD SVG 1.1//EN" "http://www.w3.org/Graphics/SVG/1.1/DTD/svg11.dtd"><svg t="1736668638323" class="icon" viewBox="0 0 1024 1024" version="1.1" xmlns="http://www.w3.org/2000/svg" p-id="41748" xmlns:xlink="http://www.w3.org/1999/xlink" width="200" height="200"><path d="M0 0.000461m511.99977 0l0 0q511.99977 0 511.999769 511.999769l0 0q0 511.99977-511.999769 511.99977l0 0q-511.99977 0-511.99977-511.99977l0 0q0-511.99977 511.99977-511.999769Z" fill="#DB1717" p-id="41749"></path><path d="M511.99977 0.000461a510.15657 510.15657 0 0 0-347.135844 135.679939A510.15657 510.15657 0 0 0 511.99977 271.360339a510.15657 510.15657 0 0 0 347.135843-135.679939A510.15657 510.15657 0 0 0 511.99977 0.000461z" fill="#FF4545" p-id="41750"></path><path d="M586.802936 731.545732l-8.601596 42.035181h115.148748c30.054386-0.5632 35.020784-13.004794 44.39038-43.929581l35.379184-168.294324H497.305376L450.559797 807.884897q-6.348797 41.625581 37.375983 41.625582h230.399897l54.169575-37.375984h-217.241502c-16.332793 3.071999-21.75999-6.553597-16.332793-24.934388l37.068784-187.596716h105.267152l-23.500789 112.639949c-5.683197 15.923193-11.366395 18.380792-29.030387 19.251192zM447.999798 600.78099l20.479991-4.659197 13.260794-61.030373-20.479991 4.659198 8.191997-59.135973h19.097591l6.451197-44.390381h-19.148791l6.297597-29.491186H386.969426l-6.399997 29.491186H323.327855l-6.399998 44.390381h57.190375l-12.697595 88.72956-60.006373 16.639992-13.311994 61.030373L348.159843 630.835377l-19.558391 156.21113c0 18.534392-7.321597 26.265588-21.45279 23.039989h-39.731182l-33.740785 39.270383h142.950336q40.959982 4.607998 43.62238-39.270383z m112.63995-193.996712l-57.651174 135.167939h76.185565l47.871979-90.931159h36.351983l21.913591 90.931159h86.425561l-32.102386-135.167939zM213.862304 325.325114h168.959924v10.239996h-168.959924z m-33.996785 18.534392H312.319859v10.239995H179.814319z m-26.726388 17.356792h97.279956v10.239996h-97.279956z m590.182135 501.759774h127.590342v10.239996h-127.641542z m-33.996785 18.534392h101.580754v10.239996h-101.631954z m0 0" fill="#FFFFFF" p-id="41751"></path><path d="M419.839811 279.501135a92.159959 92.159959 0 1 0 92.159959-92.159959 92.159959 92.159959 0 0 0-92.159959 92.159959z m0 0" fill="#FFF48D" p-id="41752"></path></svg>