<?xml version="1.0" standalone="no"?><!DOCTYPE svg PUBLIC "-//W3C//DTD SVG 1.1//EN" "http://www.w3.org/Graphics/SVG/1.1/DTD/svg11.dtd"><svg t="1736668576655" class="icon" viewBox="0 0 1024 1024" version="1.1" xmlns="http://www.w3.org/2000/svg" p-id="35646" xmlns:xlink="http://www.w3.org/1999/xlink" width="200" height="200"><path d="M4.654545 512a512 507.345455 90 1 0 1014.69091 0 512 507.345455 90 1 0-1014.69091 0Z" fill="#F44953" p-id="35647"></path><path d="M470.7328 2.029382A501.015273 501.015273 0 0 1 515.881891 0C793.925818 0 1019.345455 229.227055 1019.345455 512c0 8.685382-0.195491 17.314909-0.62371 25.897891a500.801164 500.801164 0 0 1-45.14909 2.029382C695.528727 539.927273 470.109091 310.700218 470.109091 27.927273c0-8.685382 0.195491-17.314909 0.623709-25.897891z" fill="#FFFFFF" opacity=".1" p-id="35648"></path><path d="M209.454545 923.042909V572.229818a628.540509 628.540509 0 0 0 191.636946 68.887273C416.414255 690.362182 462.363927 726.109091 516.654545 726.109091s100.240291-35.746909 115.563055-84.992A628.540509 628.540509 0 0 0 823.854545 572.229818v343.6544C737.819927 983.626473 629.573818 1024 512 1024c-113.384727 0-218.074764-37.524945-302.545455-100.957091zM516.654545 484.072727c49.617455 0 92.234473 29.854255 110.927128 72.573673A546.173673 546.173673 0 0 0 823.854545 473.972364V353.745455a18.618182 18.618182 0 0 0-18.618181-18.618182H228.072727a18.599564 18.599564 0 0 0-18.618182 18.618182v120.226909a546.173673 546.173673 0 0 0 196.272873 82.664727C424.420073 513.936291 467.037091 484.072727 516.654545 484.072727z" fill="#F9E5E5" p-id="35649"></path><path d="M578.997527 564.354327A74.063127 74.063127 0 0 1 591.127273 605.090909a74.156218 74.156218 0 0 1-14.168437 43.706182A74.379636 74.379636 0 0 1 516.654545 679.563636a74.379636 74.379636 0 0 1-60.30429-30.766545A74.156218 74.156218 0 0 1 442.181818 605.090909a74.081745 74.081745 0 0 1 14.633891-44.329891 74.947491 74.947491 0 0 1 37.310836-26.679854A74.891636 74.891636 0 0 1 516.654545 530.618182a74.407564 74.407564 0 0 1 62.342982 33.736145z" fill="#F9E5E5" p-id="35650"></path></svg>