<?xml version="1.0" standalone="no"?><!DOCTYPE svg PUBLIC "-//W3C//DTD SVG 1.1//EN" "http://www.w3.org/Graphics/SVG/1.1/DTD/svg11.dtd"><svg t="1736692978666" class="icon" viewBox="0 0 1024 1024" version="1.1" xmlns="http://www.w3.org/2000/svg" p-id="98292" xmlns:xlink="http://www.w3.org/1999/xlink" width="200" height="200"><path d="M512 512m-512 0a512 512 0 1 0 1024 0 512 512 0 1 0-1024 0Z" fill="#FF514E" p-id="98293"></path><path d="M482.816 336.5888m-182.4768 0a182.4768 182.4768 0 1 0 364.9536 0 182.4768 182.4768 0 1 0-364.9536 0Z" fill="#FFFFFF" p-id="98294"></path><path d="M837.2224 583.68c-27.9552-27.8528-75.5712-26.4192-108.1344 2.4576-32.5632-28.8768-80.0768-30.72-108.032-2.4576s-26.4192 75.3664 2.2528 107.9296l4.096 4.096 101.7856 101.7856 105.8816-106.0864c28.5696-32.768 30.0032-80.1792 2.1504-107.7248z" fill="#FFFFFF" p-id="98295"></path><path d="M700.2112 797.5936l-98.4064-98.304-5.12-5.12c-35.9424-40.96-37.6832-100.0448-2.8672-134.8608a92.16 92.16 0 0 1 91.136-20.48 283.7504 283.7504 0 0 0-74.4448-44.6464l-125.952 174.592-125.5424-174.08C239.104 543.4368 172.7488 661.1968 172.7488 798.72l404.7872-0.9216z" fill="#FFFFFF" p-id="98296"></path></svg>