<?xml version="1.0" standalone="no"?><!DOCTYPE svg PUBLIC "-//W3C//DTD SVG 1.1//EN" "http://www.w3.org/Graphics/SVG/1.1/DTD/svg11.dtd"><svg t="1736667167743" class="icon" viewBox="0 0 1024 1024" version="1.1" xmlns="http://www.w3.org/2000/svg" p-id="13969" xmlns:xlink="http://www.w3.org/1999/xlink" width="200" height="200"><path d="M996.71 517.12a486.4 486.4 0 1 1-486.4-486.4 486.4 486.4 0 0 1 486.4 486.4z" fill="#EFF3FF" p-id="13970"></path><path d="M721.306 281.6a7.68 7.68 0 0 1-7.63-7.68v-66.56a7.68 7.68 0 0 1 7.63-7.68 7.68 7.68 0 0 1 7.68 7.68v66.56a7.68 7.68 0 0 1-7.68 7.68z" fill="#5670FE" p-id="13971"></path><path d="M687.974 248.32h66.56a7.68 7.68 0 0 0 7.68-7.68 7.68 7.68 0 0 0-7.68-7.68h-66.56a7.68 7.68 0 0 0-7.628 7.68 7.68 7.68 0 0 0 7.628 7.68zM155.546 468.48a17.92 17.92 0 1 1-17.92-17.92 17.92 17.92 0 0 1 17.92 17.92z" fill="#5670FE" p-id="13972"></path><path d="M876.39 537.6v137.267c1.23 1.178-160.87 1.28-332.8 1.024V512h307.2a25.6 25.6 0 0 1 25.6 25.6zM477.03 675.84c-171.315-0.307-332.8-0.87-332.8-0.87V537.6a25.6 25.6 0 0 1 25.6-25.6h307.2z" fill="#9EB1FF" p-id="13973"></path><path d="M840.55 706.56v158.72c-61.44 61.44-162.048 118.426-296.96 128.717V706.56zM477.03 994.355C311.603 983.04 218.624 903.834 180.07 865.28V706.56h296.96z" fill="#7E94FD" p-id="13974"></path><path d="M367.565 514.662a113.357 113.357 0 0 1-81.562-35.84c-16.742-18.227-24.371-39.372-21.555-59.648v-0.921c12.851-66.56 71.117-76.8 73.626-77.312 61.44-9.421 139.315 70.605 171.673 107.52 97.28-113.613 160.87-109.261 171.674-107.52 29.286 3.635 73.881 37.12 75.161 80.179 2.048 69.427-66.048 91.648-102.4 93.645H372.224z m-67.687-90.368c-1.126 9.216 3.43 20.122 12.493 30.004a76.8 76.8 0 0 0 58.47 24.422H488.91c-38.861-46.08-106.599-108.544-145.152-102.4-1.178 0-35.687 6.707-43.879 47.974z m231.168 54.426H652.8c6.246-0.46 69.632-6.451 68.096-56.78-0.666-21.812-27.802-43.93-43.878-45.722h-1.434c-5.171-0.512-58.47-1.024-144.538 102.502z" fill="#9EB1FF" p-id="13975"></path></svg>