<?xml version="1.0" standalone="no"?><!DOCTYPE svg PUBLIC "-//W3C//DTD SVG 1.1//EN" "http://www.w3.org/Graphics/SVG/1.1/DTD/svg11.dtd"><svg t="1737719195172" class="icon" viewBox="0 0 1024 1024" version="1.1" xmlns="http://www.w3.org/2000/svg" p-id="42542" xmlns:xlink="http://www.w3.org/1999/xlink" width="200" height="200"><path d="M504.0128 513.4336m-450.816 0a450.816 450.816 0 1 0 901.632 0 450.816 450.816 0 1 0-901.632 0Z" fill="#C65EDB" p-id="42543"></path><path d="M804.9664 349.1328v-25.088c0-33.5872-27.2384-60.8256-60.8256-60.8256h-480.256c-33.5872 0-60.8256 27.2384-60.8256 60.8256v25.088h601.9072zM658.9952 529.6128h-33.536v27.8528h33.536c7.68 0 13.9264-6.2464 13.9264-13.9264 0-7.68-6.2464-13.9264-13.9264-13.9264z" fill="#FFFFFF" p-id="42544"></path><path d="M203.0592 394.8032v308.0704c0 33.5872 27.2384 60.8256 60.8256 60.8256h480.256c33.5872 0 60.8256-27.2384 60.8256-60.8256V394.8032H203.0592z m242.9952 126.976l-55.6544 123.5456a22.77888 22.77888 0 0 1-20.736 13.4144h-0.1536a22.69696 22.69696 0 0 1-20.6848-13.6704l-53.76-123.4944c-4.4544-10.2912 0.2048-22.2208 10.496-26.6752 10.24-4.4544 22.2208 0.2048 26.6752 10.496l37.6832 86.5792 39.1168-86.8352c4.608-10.1888 16.5888-14.7456 26.8288-10.1376 10.24 4.5568 14.7968 16.5888 10.1888 26.7776z m80.384 123.648c0 11.2128-9.0624 20.2752-20.2752 20.2752s-20.2752-9.0624-20.2752-20.2752V509.3376c0-11.2128 9.0624-20.2752 20.2752-20.2752s20.2752 9.0624 20.2752 20.2752v136.0896z m132.5568-47.4112h-33.536v47.4112c0 11.2128-9.0624 20.2752-20.2752 20.2752s-20.2752-9.0624-20.2752-20.2752V509.3376c0-11.2128 9.0624-20.2752 20.2752-20.2752h53.8112c30.0544 0 54.4768 24.4224 54.4768 54.4768 0 30.0544-24.4224 54.4768-54.4768 54.4768z" fill="#FFFFFF" p-id="42545"></path></svg>