<?xml version="1.0" standalone="no"?><!DOCTYPE svg PUBLIC "-//W3C//DTD SVG 1.1//EN" "http://www.w3.org/Graphics/SVG/1.1/DTD/svg11.dtd"><svg t="1736476848563" class="icon" viewBox="0 0 1024 1024" version="1.1" xmlns="http://www.w3.org/2000/svg" p-id="21486" xmlns:xlink="http://www.w3.org/1999/xlink" width="200" height="200"><path d="M426.666667 384m128 0l213.333333 0q128 0 128 128l0 277.333333q0 128-128 128l-213.333333 0q-128 0-128-128l0-277.333333q0-128 128-128Z" fill="#1AB370" opacity=".1" p-id="21487"></path><path d="M640 74.666667a32 32 0 0 1 32 32v42.666666H746.666667a128 128 0 0 1 128 128v512a128 128 0 0 1-128 128H277.333333a128 128 0 0 1-128-128v-512a128 128 0 0 1 128-128h74.666667v-42.666666a32 32 0 0 1 64 0v42.666666h192v-42.666666A32 32 0 0 1 640 74.666667zM352 213.333333H277.333333a64 64 0 0 0-64 64v512a64 64 0 0 0 64 64h469.333334a64 64 0 0 0 64-64v-512a64 64 0 0 0-64-64h-74.666667v42.666667a32 32 0 0 1-64 0v-42.666667h-192v42.666667a32 32 0 0 1-64 0v-42.666667z m298.666667 362.666667a32 32 0 0 1 0 64h-277.333334a32 32 0 0 1 0-64h277.333334z m-149.333334-149.333333a32 32 0 0 1 0 64h-128a32 32 0 0 1 0-64h128z" fill="#1AB370" p-id="21488"></path></svg>