<?xml version="1.0" standalone="no"?><!DOCTYPE svg PUBLIC "-//W3C//DTD SVG 1.1//EN" "http://www.w3.org/Graphics/SVG/1.1/DTD/svg11.dtd"><svg t="1735912232932" class="icon" viewBox="0 0 1024 1024" version="1.1" xmlns="http://www.w3.org/2000/svg" p-id="35057" xmlns:xlink="http://www.w3.org/1999/xlink" width="200" height="200"><path d="M992 192H832V32C832 12.8 819.2 0 800 0h-768C12.8 0 0 12.8 0 32v768C0 819.2 12.8 832 32 832h160v160C192 1011.2 204.8 1024 224 1024h768C1011.2 1024 1024 1011.2 1024 992v-768c0-19.2-12.8-32-32-32zM64 64H768V768H64V64z m896 896H256v-128h544c19.2 0 32-12.8 32-32V256h128v704z" fill="#2982EE" p-id="35058"></path></svg>