<?xml version="1.0" standalone="no"?><!DOCTYPE svg PUBLIC "-//W3C//DTD SVG 1.1//EN" "http://www.w3.org/Graphics/SVG/1.1/DTD/svg11.dtd"><svg t="1735958558905" class="icon" viewBox="0 0 1024 1024" version="1.1" xmlns="http://www.w3.org/2000/svg" p-id="54171" xmlns:xlink="http://www.w3.org/1999/xlink" width="200" height="200"><path d="M512 512m-512 0a512 512 0 1 0 1024 0 512 512 0 1 0-1024 0Z" fill="#FFD840" p-id="54172"></path><path d="M512 562.272m-384 0a384 384 0 1 0 768 0 384 384 0 1 0-768 0Z" fill="#FDAD00" p-id="54173"></path><path d="M636.576 526.72c12.576 0.224 24.32-6.272 30.656-16.96a33.728 33.728 0 0 0 0-34.56 35.008 35.008 0 0 0-30.656-16.96h-75.232l81.184-79.776a33.824 33.824 0 0 0 0-48.448 35.328 35.328 0 0 0-49.28 0L512 409.856l-81.248-79.776a35.328 35.328 0 0 0-49.28 0 33.824 33.824 0 0 0 0 48.416l81.184 79.808h-75.2a35.008 35.008 0 0 0-30.688 16.96 33.728 33.728 0 0 0 0 34.56c6.368 10.656 18.08 17.152 30.656 16.96h89.696v45.632h-89.696c-19.232 0-34.88 15.36-34.88 34.24 0 18.944 15.648 34.272 34.88 34.272h89.696v60.864c0 18.88 15.616 34.24 34.88 34.24 19.264 0 34.88-15.36 34.88-34.24v-60.864h89.696c19.232 0 34.88-15.36 34.88-34.24a34.56 34.56 0 0 0-34.88-34.24H546.88V526.72h89.696z" fill="#FFFBE3" p-id="54174"></path></svg>