<?xml version="1.0" standalone="no"?><!DOCTYPE svg PUBLIC "-//W3C//DTD SVG 1.1//EN" "http://www.w3.org/Graphics/SVG/1.1/DTD/svg11.dtd"><svg t="1735798923877" class="icon" viewBox="0 0 1035 1024" version="1.1" xmlns="http://www.w3.org/2000/svg" p-id="1262" xmlns:xlink="http://www.w3.org/1999/xlink" width="202.1484375" height="200"><path d="M0 512a517.952 517.952 0 0 0 1035.776 0A517.952 517.952 0 0 0 0 512z" fill="#FBE945" p-id="1263"></path><path d="M120.64 512a397.312 397.312 0 1 0 794.496 0A397.312 397.312 0 1 0 120.64 512z" fill="#FBB11B" p-id="1264"></path><path d="M915.2 512c0-85.12-28.416-170.24-78.08-234.112-63.808-49.664-148.928-78.08-234.048-78.08A396.608 396.608 0 0 0 205.76 597.12c0 85.12 28.416 170.24 78.08 234.112 63.744 49.728 148.928 78.08 234.112 78.08A396.608 396.608 0 0 0 915.2 512z" fill="#FDC72F" p-id="1265"></path><path d="M560.448 284.992l85.12 170.24 184.448 35.52-127.616 141.888 21.248 191.552-163.2-85.184-170.24 85.184 28.416-191.552-127.744-141.888 177.408-35.52 92.16-170.24" fill="#FBB11B" p-id="1266"></path><path d="M517.952 242.496l92.16 170.176 177.408 35.456-127.744 141.888 21.312 191.552-163.2-85.12-163.2 85.12 21.312-191.552L248.32 448.128l177.344-35.456 92.288-170.24" fill="#FBE945" p-id="1267"></path></svg>