<?xml version="1.0" standalone="no"?><!DOCTYPE svg PUBLIC "-//W3C//DTD SVG 1.1//EN" "http://www.w3.org/Graphics/SVG/1.1/DTD/svg11.dtd"><svg t="1736051408374" class="icon" viewBox="0 0 1024 1024" version="1.1" xmlns="http://www.w3.org/2000/svg" p-id="29871" xmlns:xlink="http://www.w3.org/1999/xlink" width="200" height="200"><path d="M509.44 0C228.132571 0 0 228.096 0 509.44s228.132571 509.44 509.44 509.44c281.344 0 509.44-228.096 509.44-509.44S790.820571 0 509.44 0z m-6.436571 796.854857a16706.194286 16706.194286 0 0 1-89.6-155.538286l216.502857-244.370285-258.084572 197.924571s-92.672-70.217143-153.234285-115.2c-33.28-31.305143 1.792-51.236571 9.142857-53.540571 8.045714-2.194286 343.698286-94.134857 477.769143-130.998857 29.769143-7.021714 41.691429 14.994286 33.755428 37.668571l-182.016 460.8c-3.108571 7.021714-26.697143 39.68-54.235428 3.254857z" fill="#FF4136" p-id="29872"></path></svg>