<?xml version="1.0" standalone="no"?><!DOCTYPE svg PUBLIC "-//W3C//DTD SVG 1.1//EN" "http://www.w3.org/Graphics/SVG/1.1/DTD/svg11.dtd"><svg t="1735958750615" class="icon" viewBox="0 0 1024 1024" version="1.1" xmlns="http://www.w3.org/2000/svg" p-id="1791" xmlns:xlink="http://www.w3.org/1999/xlink" width="200" height="200"><path d="M512 408.917333c-55.637333 0-101.376 45.738667-101.376 101.376s45.738667 101.376 101.376 101.376 101.376-45.738667 101.376-101.376-45.738667-101.376-101.376-101.376z" fill="#A585FE" p-id="1792"></path><path d="M996.693333 415.744c0-10.24-6.826667-17.066667-17.066666-20.48-51.541333-10.24-92.842667-41.301333-120.149334-89.429333-27.648-44.714667-34.474667-99.669333-17.066666-151.210667 3.413333-6.826667 0-17.066667-6.826667-24.234667C787.456 85.674667 732.501333 54.613333 674.133333 34.133333c-6.826667-3.413333-17.066667 0-23.893333 6.826667-34.474667 41.301333-86.016 61.781333-137.557333 61.781333s-99.669333-23.893333-137.557334-61.781333c-6.826667-6.826667-13.653333-10.24-23.893333-6.826667-58.368 23.893333-113.322667 54.954667-161.450667 96.256-6.826667 3.413333-10.24 13.653333-6.826666 24.234667 13.653333 51.541333 10.24 103.082667-17.066667 151.210667-24.234667 44.714667-68.608 75.776-120.149333 89.429333-6.826667 3.413333-13.653333 10.24-17.066667 20.48-6.826667 34.474667-10.24 65.194667-10.24 96.256 0 31.061333 3.413333 65.194667 10.24 96.256 0 10.24 6.826667 17.066667 17.066667 20.48 51.541333 10.24 92.842667 41.301333 120.149333 89.429333 27.648 44.714667 34.474667 99.669333 17.066667 151.210667-3.413333 6.826667 0 17.066667 6.826666 23.893333 48.128 44.714667 103.082667 75.776 161.450667 96.256h6.826667c6.826667 0 13.653333-3.413333 17.066666-6.826666 34.474667-41.301333 86.016-61.781333 137.557334-61.781334s99.669333 23.893333 137.557333 61.781334c6.826667 6.826667 13.653333 10.24 23.893333 6.826666 58.368-23.893333 113.322667-54.954667 161.450667-96.256 6.826667-3.413333 10.24-13.653333 6.826667-23.893333-13.653333-51.541333-10.24-103.082667 17.066666-151.210667 24.234667-44.714667 68.608-75.776 120.149334-89.429333 6.826667-3.413333 13.653333-10.24 17.066666-20.48 6.826667-34.474667 10.24-65.194667 10.24-96.256 0-31.061333-3.413333-65.194667-10.24-96.256z m-484.693333 257.365333c-89.088 0-162.816-73.728-162.816-162.816s73.728-162.816 162.816-162.816 162.816 73.728 162.816 162.816-73.728 162.816-162.816 162.816z" fill="#A585FE" p-id="1793"></path><path d="M979.285333 395.264c-33.450667-6.826667-62.464-22.186667-86.357333-45.397333-71.338667 22.528-122.88 89.088-122.88 167.594666 0 75.776 48.128 140.288 115.370667 165.205334 24.576-25.6 57.344-44.032 93.866666-53.589334 6.826667-3.413333 13.653333-10.24 17.066667-20.48 6.826667-34.474667 10.24-65.194667 10.24-96.256 0-31.061333-3.413333-65.194667-10.24-96.256 0.341333-10.581333-6.485333-17.408-17.066667-20.821333z" fill="#B79EFE" p-id="1794"></path><path d="M123.904 354.645333c-22.528 18.773333-49.834667 32.426667-79.530667 40.277334-6.826667 3.413333-13.653333 10.24-17.066666 20.48-6.826667 34.474667-10.24 65.194667-10.24 96.256 0 31.061333 3.413333 65.194667 10.24 96.256 0 10.24 6.826667 17.066667 17.066666 20.48 6.144 1.365333 11.946667 2.730667 17.408 4.437333 63.829333-25.258667 108.885333-87.381333 108.885334-160.426667 0.341333-45.056-17.408-86.698667-46.762667-117.76z" fill="#AE91FE" p-id="1795"></path></svg>