<?xml version="1.0" standalone="no"?><!DOCTYPE svg PUBLIC "-//W3C//DTD SVG 1.1//EN" "http://www.w3.org/Graphics/SVG/1.1/DTD/svg11.dtd"><svg t="1735789998946" class="icon" viewBox="0 0 1024 1024" version="1.1" xmlns="http://www.w3.org/2000/svg" p-id="5282" xmlns:xlink="http://www.w3.org/1999/xlink" width="200" height="200"><path d="M0 0m307.2 0l409.6 0q307.2 0 307.2 307.2l0 409.6q0 307.2-307.2 307.2l-409.6 0q-307.2 0-307.2-307.2l0-409.6q0-307.2 307.2-307.2Z" fill="#3DD4A0" p-id="5283"></path><path d="M690.0736 819.2H333.9264a80.7936 80.7936 0 0 1-80.64-80.64v-453.12a80.7936 80.7936 0 0 1 80.64-80.64h356.1472a80.7936 80.7936 0 0 1 80.64 80.64v453.12a80.7936 80.7936 0 0 1-80.64 80.64z m-356.1472-581.8112a48.1024 48.1024 0 0 0-48.0512 48.0512v453.12a48.1024 48.1024 0 0 0 48.0512 48.0768h356.1472a48.1024 48.1024 0 0 0 48.0512-48.0768v-453.12a48.1024 48.1024 0 0 0-48.0512-48.0512z" fill="#FFFFFF" p-id="5284"></path><path d="M489.7792 396.928h-81.92v-36.7104h208.4608v36.7104h-82.5088v242.6624h-44.0576z" fill="#FFFFFF" p-id="5285"></path></svg>