<?xml version="1.0" standalone="no"?><!DOCTYPE svg PUBLIC "-//W3C//DTD SVG 1.1//EN" "http://www.w3.org/Graphics/SVG/1.1/DTD/svg11.dtd"><svg t="1735959648345" class="icon" viewBox="0 0 1024 1024" version="1.1" xmlns="http://www.w3.org/2000/svg" p-id="2084" xmlns:xlink="http://www.w3.org/1999/xlink" width="200" height="200"><path d="M472.4 149.7l271.7 129.7-271.7 129.8-271.8-129.8 271.8-129.7z m0 725.2L147.1 719.5V344.3l307.8 146.9c11.1 5.3 23.9 5.3 35 0l307.8-147V553H879V288h-1.2c0.7-2.9 1.1-5.8 1.2-8.7 0-15.7-9-30.1-23.2-36.8l-366-174.8a40.51 40.51 0 0 0-35 0l-366 174.8c-14.2 6.8-23.2 21.1-23.2 36.8v466c0 15.7 9 30.1 23.2 36.8l366 174.7c11.1 5.3 23.9 5.3 35 0l122-58.3-35-73.6-104.4 50z" fill="#1768E4" p-id="2085"></path><path d="M834.9 602.3l-91 248.4-0.3 0.9c0 0.1 0 0.1-0.1 0.2-0.1-0.2-0.1-0.3-0.2-0.5l-96.7-249H521.1l162 368.7h117.4l160.1-368.7H834.9z" fill="#8BB3F1" p-id="2086"></path></svg>