<?xml version="1.0" standalone="no"?><!DOCTYPE svg PUBLIC "-//W3C//DTD SVG 1.1//EN" "http://www.w3.org/Graphics/SVG/1.1/DTD/svg11.dtd"><svg t="1736783117080" class="icon" viewBox="0 0 1024 1024" version="1.1" xmlns="http://www.w3.org/2000/svg" p-id="59952" xmlns:xlink="http://www.w3.org/1999/xlink" width="200" height="200"><path d="M512 512m-512 0a512 512 0 1 0 1024 0 512 512 0 1 0-1024 0Z" fill="#F9861E" p-id="59953"></path><path d="M824.888889 637.155556v-250.311112c0-34.133333-17.066667-65.422222-48.355556-82.488888l-216.177777-125.155556c-28.444444-17.066667-65.422222-17.066667-96.711112 0l-216.177777 125.155556c-28.444444 17.066667-48.355556 48.355556-48.355556 82.488888v250.311112c0 34.133333 17.066667 65.422222 48.355556 82.488888l216.177777 125.155556c28.444444 17.066667 65.422222 17.066667 96.711112 0l216.177777-125.155556c31.288889-17.066667 48.355556-48.355556 48.355556-82.488888z" fill="#FFFFFF" p-id="59954"></path><path d="M375.466667 429.511111l-17.066667 11.377778-25.6-31.288889c45.511111-25.6 85.333333-65.422222 119.466667-113.777778l42.666666 8.533334c-8.533333 11.377778-14.222222 19.911111-17.066666 22.755555h130.844444v31.288889c-11.377778 14.222222-25.6 28.444444-39.822222 42.666667h88.177778v130.844444h-91.022223v68.266667c0 11.377778 5.688889 17.066667 14.222223 17.066666h59.733333c5.688889 0 8.533333-2.844444 11.377778-8.533333 2.844444-5.688889 5.688889-22.755556 5.688889-48.355555l39.822222 11.377777c-2.844444 39.822222-8.533333 65.422222-14.222222 71.111111-5.688889 8.533333-17.066667 11.377778-31.288889 11.377778H568.888889c-28.444444 0-42.666667-17.066667-42.666667-48.355555v-76.8h-11.377778c-2.844444 5.688889-2.844444 11.377778-8.533333 19.911111-19.911111 45.511111-68.266667 82.488889-147.911111 113.777778l-25.6-31.288889c68.266667-25.6 113.777778-56.888889 133.688889-93.866667l2.844444-8.533333h-93.866666v-99.555556z m142.222222-25.6c11.377778-11.377778 25.6-22.755556 36.977778-36.977778h-108.088889c-11.377778 11.377778-22.755556 25.6-36.977778 36.977778h108.088889zM483.555556 494.933333c2.844444-17.066667 5.688889-34.133333 8.533333-54.044444h-73.955556v54.044444H483.555556z m133.688888 0v-54.044444h-85.333333c0 17.066667-2.844444 34.133333-5.688889 54.044444h91.022222z" fill="#F9861E" p-id="59955"></path></svg>