<?xml version="1.0" standalone="no"?><!DOCTYPE svg PUBLIC "-//W3C//DTD SVG 1.1//EN" "http://www.w3.org/Graphics/SVG/1.1/DTD/svg11.dtd"><svg t="1736825566000" class="icon" viewBox="0 0 1024 1024" version="1.1" xmlns="http://www.w3.org/2000/svg" p-id="8929" xmlns:xlink="http://www.w3.org/1999/xlink" width="200" height="200"><path d="M512 512m-512 0a512 512 0 1 0 1024 0 512 512 0 1 0-1024 0Z" fill="#FFFFFF" p-id="8930"></path><path d="M512 1024C229.248 1024 0 794.752 0 512S229.248 0 512 0s512 229.248 512 512-229.248 512-512 512z m-26.88-731.605333a22.272 22.272 0 0 0 13.226667-3.370667 12.117333 12.117333 0 0 0 5.290666-8.405333 16.981333 16.981333 0 0 0-2.645333-10.752 33.792 33.792 0 0 0-9.941333-10.410667 334.506667 334.506667 0 0 0-15.530667-9.045333c-6.826667-3.84-14.208-8.106667-22.144-12.8-8.106667-4.778667-16.256-9.472-24.490667-14.08-7.552-4.266667-15.061333-8.618667-22.485333-13.098667-5.717333-3.626667-10.581333-4.693333-14.549333-3.413333a17.706667 17.706667 0 0 0-9.6 8.106666 50.133333 50.133333 0 0 0-5.589334 14.762667c-1.28 5.333333-2.133333 10.709333-2.645333 16.128a89.642667 89.642667 0 0 0-1.322667 15.786667c0 5.632 0.64 10.666667 1.962667 15.146666a23.04 23.04 0 0 0 6.954667 11.093334c3.285333 2.901333 8.021333 4.352 14.208 4.352h89.301333z m51.626667-0.682667h88.618666c6.144 0 10.922667-1.450667 14.208-4.352a23.125333 23.125333 0 0 0 6.954667-11.093333 53.333333 53.333333 0 0 0 1.962667-15.104c0-5.632-0.213333-10.88-0.682667-15.786667a938.24 938.24 0 0 0-2.944-15.786667 44.501333 44.501333 0 0 0-5.290667-14.506666 17.706667 17.706667 0 0 0-9.6-8.021334c-3.968-1.365333-8.832-0.426667-14.549333 2.688-6.613333 4.010667-14.08 8.405333-22.485333 13.098667-8.362667 4.693333-16.64 9.386667-24.789334 14.08-8.192 4.736-15.658667 8.96-22.485333 12.8-6.826667 3.797333-11.818667 6.826667-14.890667 9.088a31.744 31.744 0 0 0-10.624 10.368 16.981333 16.981333 0 0 0-2.602666 10.794667c0.426667 3.370667 2.176 6.144 5.290666 8.362666 3.072 2.261333 7.68 3.413333 13.866667 3.413334z m-60.885334 44.373333H284.032c-14.08 0-23.253333 2.346667-27.434667 7.04-4.181333 4.693333-6.272 12.202667-6.272 22.528v59.093334c0 11.221333 2.304 19.498667 6.912 24.874666 4.693333 5.376 13.824 8.064 27.477334 8.064h191.146666v-121.6z m72.106667 0v121.6h191.146667c13.653333 0 22.826667-2.56 27.434666-7.722666 4.650667-5.12 6.954667-13.098667 6.954667-23.893334V368.341333c0-10.282667-2.56-18.218667-7.594667-23.808-5.077333-5.632-14.677333-8.448-28.757333-8.448h-189.184z m-72.106667 157.226667h-203.093333v253.994667c0 22.826667 6.4 40.533333 19.2 53.077333 12.8 12.544 32.64 18.816 59.52 18.816h124.373333v-325.888z m72.106667 0V819.2h124.330667c26.88 0 46.506667-6.613333 58.88-19.84 12.373333-13.184 18.773333-31.232 19.2-54.058667v-251.989333h-202.410667z" fill="#F1482D" p-id="8931"></path></svg>