<?xml version="1.0" standalone="no"?><!DOCTYPE svg PUBLIC "-//W3C//DTD SVG 1.1//EN" "http://www.w3.org/Graphics/SVG/1.1/DTD/svg11.dtd"><svg t="1736784066134" class="icon" viewBox="0 0 1024 1024" version="1.1" xmlns="http://www.w3.org/2000/svg" p-id="91566" xmlns:xlink="http://www.w3.org/1999/xlink" width="200" height="200"><path d="M512 512m-512 0a512 512 0 1 0 1024 0 512 512 0 1 0-1024 0Z" fill="#F5A623" p-id="91567"></path><path d="M32 324.266667C107.733333 134.4 293.333333 0 509.866667 0 793.6 0 1024 229.333333 1024 512c0 272-213.333333 494.933333-482.133333 512L32 324.266667z" fill="#F57E23" p-id="91568"></path><path d="M85.333333 236.8C176 94.933333 333.866667 0 515.2 0 795.733333 0 1024 229.333333 1024 513.066667c0 110.933333-35.2 213.333333-94.933333 297.6L85.333333 236.8z" fill="#FF5C1E" p-id="91569"></path><path d="M320 37.333333C379.733333 13.866667 444.8 0 513.066667 0 794.666667 0 1024 229.333333 1024 513.066667c0 152.533333-66.133333 289.066667-170.666667 382.933333L320 37.333333z" fill="#FF6C20" p-id="91570"></path><path d="M429.866667 358.4l27.733333 29.866667c-28.8 19.2-61.866667 34.133333-99.2 46.933333l14.933333 57.6 112-29.866667 9.6 36.266667-34.133333 9.6 52.266667 193.066667-38.4 10.666666-52.266667-193.066666-40.533333 10.666666 9.6 35.2c16 66.133333 14.933333 122.666667-1.066667 168.533334l-35.2-21.333334c12.8-36.266667 12.8-82.133333-1.066667-136.533333l-42.666666-161.066667c46.933333-14.933333 85.333333-33.066667 118.4-56.533333zM126.933333 467.2l64-17.066667c-7.466667-8.533333-13.866667-14.933333-21.333333-21.333333l38.4-17.066667c7.466667 8.533333 13.866667 18.133333 21.333333 28.8l67.2-18.133333 9.6 35.2-170.666666 45.866667-8.533334-36.266667z m19.2 85.333333l37.333334-10.666666c-7.466667-10.666667-16-21.333333-24.533334-29.866667l30.933334-22.4c9.6 11.733333 18.133333 25.6 28.8 42.666667l33.066666-8.533334c1.066667-17.066667 2.133333-33.066667 2.133334-51.2l37.333333 3.2c-1.066667 13.866667-2.133333 26.666667-4.266667 38.4l36.266667-9.6 9.6 35.2-67.2 18.133334 8.533333 29.866666 60.8-16 9.6 35.2-60.8 16 25.6 97.066667c6.4 23.466667-4.266667 38.4-28.8 44.8l-19.2 5.333333-18.133333-33.066666c6.4 0 11.733333 0 16-1.066667 8.533333-2.133333 11.733333-7.466667 9.6-13.866667L245.333333 634.666667l-65.066666 17.066666-9.6-35.2 65.066666-17.066666-8.533333-29.866667-70.4 19.2-10.666667-36.266667zM202.666667 660.266667l37.333333-2.133334c2.133333 40.533333-1.066667 75.733333-9.6 107.733334l-37.333333-11.733334c8.533333-30.933333 11.733333-61.866667 9.6-93.866666z m120.533333-34.133334c14.933333 20.266667 27.733333 39.466667 38.4 57.6l-28.8 21.333334c-11.733333-21.333333-24.533333-42.666667-38.4-61.866667l28.8-17.066667z m228.266667-290.133333l213.333333-57.6L800 410.666667l-213.333333 57.6-35.2-132.266667z m199.466666 49.066667l-16-59.733334-135.466666 36.266667 16 59.733333 135.466666-36.266666zM682.666667 468.266667l44.8 169.6-37.333334 9.6-4.266666-17.066667-65.066667 17.066667 4.266667 17.066666-37.333334 10.666667-44.8-169.6L682.666667 468.266667z m-70.4 142.933333l65.066666-17.066667-21.333333-78.933333-65.066667 17.066667 21.333334 78.933333z m244.266666-188.8l44.8 169.6-38.4 10.666667-4.266666-17.066667-68.266667 18.133333 4.266667 17.066667-37.333334 8.533333-44.8-169.6 144-37.333333z m-75.733333 144l68.266667-18.133333-21.333334-78.933334-68.266666 18.133334 21.333333 78.933333zM181.333333 362.666667c-1.066667 0-3.2 0-4.266666-1.066667-5.333333-2.133333-7.466667-8.533333-5.333334-13.866667C235.733333 212.266667 364.8 128 507.733333 128c82.133333 0 158.933333 27.733333 224 78.933333 4.266667 3.2 5.333333 10.666667 2.133334 14.933334-3.2 4.266667-10.666667 5.333333-14.933334 2.133333-61.866667-48-134.4-74.666667-211.2-74.666667-134.4 0-256 78.933333-316.8 206.933334-2.133333 4.266667-5.333333 6.4-9.6 6.4zM526.933333 906.666667c-82.133333 0-158.933333-27.733333-224-78.933334-4.266667-3.2-5.333333-10.666667-2.133333-14.933333 3.2-4.266667 10.666667-5.333333 14.933333-2.133333 61.866667 48 134.4 74.666667 211.2 74.666666 134.4 0 256-78.933333 316.8-206.933333 2.133333-5.333333 8.533333-7.466667 13.866667-5.333333 5.333333 2.133333 7.466667 8.533333 5.333333 13.866666C798.933333 822.4 669.866667 906.666667 526.933333 906.666667z" fill="#FFFFFF" p-id="91571"></path></svg>