<?xml version="1.0" standalone="no"?><!DOCTYPE svg PUBLIC "-//W3C//DTD SVG 1.1//EN" "http://www.w3.org/Graphics/SVG/1.1/DTD/svg11.dtd"><svg t="1736784132181" class="icon" viewBox="0 0 1024 1024" version="1.1" xmlns="http://www.w3.org/2000/svg" p-id="98372" xmlns:xlink="http://www.w3.org/1999/xlink" width="200" height="200"><path d="M13.128205 512C13.128205 236.570256 236.570256 13.128205 512 13.128205s498.871795 223.442051 498.871795 498.871795-223.442051 498.871795-498.871795 498.871795-498.871795-223.442051-498.871795-498.871795z m355.774359-341.333333c-14.70359 0-28.094359 7.089231-35.446154 18.379487h-0.262564c-3.413333 5.251282-5.251282 11.552821-5.251282 18.116923 0 6.564103 2.100513 12.865641 5.77641 18.116923l55.401026 71.417436h244.972308l55.401025-71.417436c7.614359-11.027692 7.876923-24.94359 0.525129-36.233846-7.089231-11.290256-20.742564-18.379487-35.446154-18.379487H593.394872c-10.765128 0-21.005128 3.675897-28.882051 10.502564l-32.295385 28.619487-32.295385-28.619487c-7.614359-6.826667-18.116923-10.502564-28.882051-10.502564h-102.137436z m193.509744 629.628718h13.128205c116.053333-3.413333 225.805128-24.418462 225.805128-161.476923 0-98.724103-72.992821-224.754872-165.15282-291.708718H388.594872c-92.422564 66.953846-165.152821 192.722051-165.152821 291.708718 0 137.058462 109.751795 158.06359 225.542564 161.739487h12.603077l18.904616 0.262564h63.015384l18.904616-0.525128z m5.513846-282.518975l53.825641 7.614359 0.787692 0.262564a25.206154 25.206154 0 0 1 13.915898 43.060513l-38.596923 37.284103c-1.312821 1.575385-2.363077 3.413333-3.15077 5.251282s-0.787692 3.938462-0.787692 6.038974l9.452308 53.037949c3.413333 20.742564-18.379487 36.49641-36.496411 26.518974l-48.311794-24.94359a11.237744 11.237744 0 0 0-11.552821 0l-48.049231 24.94359c-18.379487 9.977436-40.172308-5.77641-36.758974-26.518974l9.452308-53.300513c0.525128-3.675897-0.787692-7.876923-3.938462-11.027692l-38.859487-37.546667c-14.966154-14.70359-6.564103-39.647179 14.178461-43.060513l53.825641-7.614359c3.675897-0.262564 7.089231-2.888205 9.452308-7.089231l23.630769-48.574358a24.20841 24.20841 0 0 1 22.317949-14.441026 24.20841 24.20841 0 0 1 22.317949 14.441026l23.893333 48.836923c1.050256 1.575385 2.363077 3.150769 3.938462 4.463589 1.575385 1.312821 3.413333 2.100513 5.513846 2.363077z" fill="#d4237a" p-id="98373"></path></svg>