<?xml version="1.0" standalone="no"?><!DOCTYPE svg PUBLIC "-//W3C//DTD SVG 1.1//EN" "http://www.w3.org/Graphics/SVG/1.1/DTD/svg11.dtd"><svg t="1736248113921" class="icon" viewBox="0 0 1024 1024" version="1.1" xmlns="http://www.w3.org/2000/svg" p-id="58034" xmlns:xlink="http://www.w3.org/1999/xlink" width="200" height="200"><path d="M512 512m-480 0a480 480 0 1 0 960 0 480 480 0 1 0-960 0Z" fill="#FFFFFF" p-id="58035"></path><path d="M512 512m-436.35677719 0a436.35677719 436.35677719 0 1 0 872.71355438 0 436.35677719 436.35677719 0 1 0-872.71355438 0Z" fill="#FDD231" p-id="58036"></path><path d="M86.07706812 607.31662625c43.48154156 195.14955563 217.66639688 341.04015094 425.87981719 341.04015094 241.00242563 0 436.36755563-195.36513094 436.36755563-436.35677719 0-208.256535-145.89059531-382.44139031-341.04015094-425.92293187q1.07787656 16.45917563 1.07787656 33.18781968c0 270.15898687-219.00296438 489.16195125-489.16195125 489.16195125q-16.66397156 0-33.12314719-1.11021281z" fill="#FDAD00" p-id="58037"></path><path d="M578.69900281 764.62193469a85.98221531 85.98221531 0 0 1-10.63864218 16.89032625 84.3007275 84.3007275 0 0 1-18.18377719 16.87954687 118.56642375 118.56642375 0 0 1-25.71813563 13.43034282q-14.63756438 5.62651594-33.26327156 5.62651593t-32.83212094-6.05766656a95.27351156 95.27351156 0 0 1-24.39234656-14.72379469 91.29614625 91.29614625 0 0 1-16.40528156-17.7526275 100.02694687 100.02694687 0 0 1-8.87092406-15.16572281q-0.87307969-2.58690375-6.20856938-16.44839719t-13.30099687-35.50525406q-7.96550812-21.64376156-17.73106969-47.63136656t-20.38264688-53.69981156q-23.93963906-64.09054125-54.098625-143.7564-9.70088906-25.98760406-18.18377812-39.88143282t-18.17299969-19.05685875a34.59983813 34.59983813 0 0 0-21.72999187-3.45998343 223.12045312 223.12045312 0 0 0-29.70627844 6.91996781q-4.44085125-20.78146031-0.45270844-38.96523844a80.84074406 80.84074406 0 0 1 15.52142344-32.90757187 102.10724906 102.10724906 0 0 1 29.3182425-25.07140969 143.27135531 143.27135531 0 0 1 39.88143375-15.59687438q44.34384281-11.25303188 74.05012125 3.47076282t43.01805469 48.50444625q3.54621375 10.40150906 15.09027187 39.88143375t26.60199469 69.71705718q15.09027187 40.28024812 32.81056312 86.60738344t34.58905875 90.54163313l125.03368407-291.0266775q9.70088906-19.91915906 31.04284593-27.7122075a162.58690406 162.58690406 0 0 1 43.44920438-9.51765 252.28779281 252.28779281 0 0 1 54.97170562 0.86230125q-53.21476687 124.64564812-95.78011312 223.36836468-17.73106969 42.47911594-35.47291782 83.14739907t-31.43088093 73.17704156q-13.74292688 32.48720062-22.63540875 52.8159525t-9.75478313 22.08569156z" fill="#FFFFFF" p-id="58038"></path></svg>