<?xml version="1.0" standalone="no"?><!DOCTYPE svg PUBLIC "-//W3C//DTD SVG 1.1//EN" "http://www.w3.org/Graphics/SVG/1.1/DTD/svg11.dtd"><svg t="1736247756970" class="icon" viewBox="0 0 1969 1024" version="1.1" xmlns="http://www.w3.org/2000/svg" p-id="41593" data-spm-anchor-id="a313x.search_index.0.i37.35b23a81X8dDOn" xmlns:xlink="http://www.w3.org/1999/xlink" width="384.5703125" height="200"><path d="M1890.461538 78.769231a151.236923 151.236923 0 0 0-103.975384-39.384616H182.744615A151.236923 151.236923 0 0 0 78.769231 78.769231a123.667692 123.667692 0 0 0-39.384616 90.584615v686.08A123.667692 123.667692 0 0 0 78.769231 945.230769a151.236923 151.236923 0 0 0 101.612307 37.809231h1606.104616A151.236923 151.236923 0 0 0 1890.461538 945.230769a123.667692 123.667692 0 0 0 41.747693-91.372307V169.353846A123.667692 123.667692 0 0 0 1890.461538 78.769231z" fill="#FF6600" p-id="41594" data-spm-anchor-id="a313x.search_index.0.i35.35b23a81X8dDOn" class="selected"></path><path d="M478.916923 809.747692q-35.446154 0-61.44-66.953846L212.676923 214.252308h157.538462l138.633846 362.338461 230.006154-362.338461h157.538461L556.898462 743.581538q-42.535385 66.166154-77.981539 66.166154zM853.070769 801.083077l82.707693-586.830769h146.510769l-83.495385 586.830769h-145.723077zM1754.190769 434.018462a242.609231 242.609231 0 0 1-91.372307 157.538461 267.815385 267.815385 0 0 1-170.929231 58.289231h-245.76l-20.48 147.298461H1079.138462l42.535384-298.535384h405.661539a78.769231 78.769231 0 0 0 53.563077-18.904616 78.769231 78.769231 0 0 0 27.56923-50.412307 55.138462 55.138462 0 0 0-13.390769-49.624616 64.590769 64.590769 0 0 0-48.049231-18.116923h-406.44923L1260.307692 214.252308h295.384616a206.375385 206.375385 0 0 1 157.538461 58.28923 182.744615 182.744615 0 0 1 40.96 161.476924z" fill="#FFFFFF" p-id="41595"></path></svg>