<?xml version="1.0" standalone="no"?><!DOCTYPE svg PUBLIC "-//W3C//DTD SVG 1.1//EN" "http://www.w3.org/Graphics/SVG/1.1/DTD/svg11.dtd"><svg t="1736246805314" class="icon" viewBox="0 0 2645 1024" version="1.1" xmlns="http://www.w3.org/2000/svg" p-id="13727" xmlns:xlink="http://www.w3.org/1999/xlink" width="516.6015625" height="200"><path d="M137.557333 17.322667h2370.218667C2599.509333 17.322667 2645.333333 63.317333 2645.333333 155.306667v653.397333c0 91.818667-45.824 137.813333-137.557333 137.813333H137.557333C45.824 946.346667 0 900.437333 0 808.618667V155.221333C0 63.317333 45.824 17.322667 137.557333 17.322667z" fill="#FF6600" p-id="13728"></path><path d="M791.893333 442.112a50.858667 50.858667 0 0 1-10.666666-1.109333l-7.68 35.242666c-1.194667 35.584-21.504 158.293333-21.504 158.293334H321.706667s-12.8-122.88-15.872-160.341334l-6.741334-35.072a53.589333 53.589333 0 0 1-17.237333 2.986667 55.893333 55.893333 0 0 1-55.808-56.149333 55.722667 55.722667 0 1 1 104.789333 25.941333l102.229334 38.229333L518.826667 310.613333a55.978667 55.978667 0 1 1 57.173333-92.672 56.064 56.064 0 0 1-21.674667 92.672l85.845334 139.434667 101.12-40.106667a56.064 56.064 0 0 1 50.176-80.213333 55.637333 55.637333 0 0 1 55.893333 56.32 55.978667 55.978667 0 0 1-55.722667 56.064h0.256z m-39.850666 256.426667c-22.186667 47.701333-49.493333 64.170667-95.573334 64.170666H417.28c-35.157333 0-76.117333-16.469333-95.573333-64.170666V682.666667h430.421333v15.957333z" fill="#FCFF00" p-id="13729"></path><path d="M1300.053333 793.856c-21.845333 0-40.789333-20.650667-56.746666-61.952l-189.184-488.96h145.493333l128 335.189333 212.48-335.274666h145.408l-313.514667 489.728c-26.197333 40.789333-50.176 61.269333-71.936 61.269333z m345.514667-8.021333l76.373333-542.890667h135.253334L1780.053333 785.92h-134.485333z m832-339.541334a224.256 224.256 0 0 1-84.394667 145.749334 247.296 247.296 0 0 1-157.781333 53.930666h-226.901333l-18.858667 136.277334H1854.293333l39.253334-276.138667h374.613333a72.618667 72.618667 0 0 0 49.493333-17.493333 73.130667 73.130667 0 0 0 25.429334-46.677334 50.858667 50.858667 0 0 0-12.373334-45.824 59.989333 59.989333 0 0 0-44.373333-16.810666h-375.296l110.592-136.277334h272.810667a190.293333 190.293333 0 0 1 145.408 54.016c35.84 40.789333 49.92 96.341333 37.888 149.333334h-0.085334z" fill="#FFFFFF" p-id="13730"></path></svg>