<?xml version="1.0" standalone="no"?><!DOCTYPE svg PUBLIC "-//W3C//DTD SVG 1.1//EN" "http://www.w3.org/Graphics/SVG/1.1/DTD/svg11.dtd"><svg t="1736247707529" class="icon" viewBox="0 0 1549 1024" version="1.1" xmlns="http://www.w3.org/2000/svg" p-id="39162" xmlns:xlink="http://www.w3.org/1999/xlink" width="302.5390625" height="200"><path d="M304.432432 1024H138.378378l359.783784-788.756757h166.054054L304.432432 1024z" fill="#FCE4CD" p-id="39163"></path><path d="M581.189189 1024H415.135135l359.783784-788.756757h166.054054L581.189189 1024zM1549.837838 235.243243H1051.675676l-75.692973 166.054054L691.891892 1024h166.054054l132.566486-290.594595h332.108109l75.692973-166.054054zM1142.036757 401.297297h166.054054l-75.831352 166.054054h-166.054054zM304.432432 1024H138.378378L0 235.243243h166.054054l138.378378 788.756757zM1024 69.189189l-83.027027 138.378379H788.756757l27.675675-124.540541 41.513514 41.513514 69.189189-96.864865v96.864865l96.864865-55.351352z" fill="#EDC295" p-id="39164"></path><path d="M1030.918919 48.432432m-6.918919 0a6.918919 6.918919 0 1 0 13.837838 0 6.918919 6.918919 0 1 0-13.837838 0Z" fill="#FFD3AF" p-id="39165"></path><path d="M934.054054 6.918919m-6.918919 0a6.918919 6.918919 0 1 0 13.837838 0 6.918919 6.918919 0 1 0-13.837838 0Z" fill="#FFD3AF" p-id="39166"></path><path d="M823.351351 62.27027m-6.918919 0a6.918919 6.918919 0 1 0 13.837838 0 6.918919 6.918919 0 1 0-13.837838 0Z" fill="#FFD3AF" p-id="39167"></path></svg>